#!OML:ASF F:\VICON\USERDATA\INSTALL\rory7\rory7.ASF
:FULLY-SPECIFIED
:DEGREES
724
root 0.00841386 18.836 4.12099 -3.28771 -5.58349 0.281185
lowerback 5.76763 1.71493 -0.0706553
upperback -0.186338 2.22445 -1.62225
thorax -3.36321 1.09401 -1.82338
lowerneck -7.54072 -5.64102 -6.45407
upperneck 1.85087 -7.30392 8.4714
head 2.58154 -3.47221 3.61118
rclavicle -2.99978e-014 2.06736e-014
rhumerus 36.2323 -0.259109 -48.3659
rradius 123.664
rwrist 14.3339
rhand -47.5325 17.1111
rfingers 7.12502
rthumb -20.2191 -11.8566
lclavicle -2.99978e-014 2.06736e-014
lhumerus -34.8693 14.667 69.706
lradius 21.3657
lwrist -8.77272
lhand -24.9186 22.511
lfingers 7.12502
lthumb 1.59014 52.4848
rfemur 0 0 0
rtibia 0
rfoot 0 0
rtoes 0
lfemur 6.71793 -10.3777 -19.4321
ltibia 10.4141
lfoot -13.8995 22.2239
ltoes -3.31479
725
root 0.00824484 18.8357 4.12094 -3.30536 -5.61386 0.255152
lowerback 5.76836 1.71587 -0.0301133
upperback -0.170023 2.22896 -1.61407
thorax -3.34539 1.09582 -1.83765
lowerneck -7.50548 -5.62563 -6.54
upperneck 1.69974 -7.27249 8.55967
head 2.53057 -3.45716 3.6617
rclavicle 6.36732e-015 -7.95139e-016
rhumerus 36.3825 -0.41552 -48.3728
rradius 123.55
rwrist 14.7251
rhand -47.529 16.681
rfingers 7.12502
rthumb -20.2158 -12.287
lclavicle 6.36732e-015 -7.95139e-016
lhumerus -34.8081 14.6997 69.7019
lradius 21.2259
lwrist -8.57251
lhand -24.885 21.8284
lfingers 7.12502
lthumb 1.62262 51.802
rfemur 0 0 0
rtibia 0
rfoot 0 0
rtoes 0
lfemur 6.73186 -10.4277 -19.4161
ltibia 10.4156
lfoot -13.8887 22.3051
ltoes -3.24556
726
root 0.008911 18.8348 4.12316 -3.28965 -5.59663 0.305029
lowerback 5.74537 1.71207 -0.0686676
upperback -0.222337 2.22044 -1.62593
thorax -3.38782 1.09169 -1.82802
lowerneck -7.42184 -5.61135 -6.64374
upperneck 1.62889 -7.24879 8.65808
head 2.49988 -3.44634 3.71977
rclavicle -2.79168e-014 -8.34896e-015
rhumerus 36.4686 -0.510176 -48.4151
rradius 123.493
rwrist 15.0057
rhand -47.3475 16.3901
rfingers 7.12502
rthumb -20.0413 -12.5963
lclavicle -2.79168e-014 -8.34896e-015
lhumerus -34.9209 14.7103 69.6428
lradius 21.1925
lwrist -8.6214
lhand -25.0184 21.4862
lfingers 7.12502
lthumb 1.49375 51.4607
rfemur 0 0 0
rtibia 0
rfoot 0 0
rtoes 0
lfemur 6.72127 -10.4764 -19.4845
ltibia 10.4048
lfoot -13.8851 22.3564
ltoes -3.24685
727
root 0.00903132 18.8348 4.12398 -3.26646 -5.56832 0.337366
lowerback 5.76577 1.7145 -0.0872651
upperback -0.269729 2.2211 -1.64018
thorax -3.44842 1.09165 -1.83429
lowerneck -7.54945 -5.65584 -6.67301
upperneck 1.71254 -7.30377 8.65162
head 2.55787 -3.47048 3.717
rclavicle -1.963e-015 -4.37326e-015
rhumerus 36.5794 -0.642722 -48.4353
rradius 123.432
rwrist 15.0919
rhand -47.2136 16.4871
rfingers 7.12502
rthumb -19.9126 -12.5127
lclavicle -1.963e-015 -4.37326e-015
lhumerus -34.9431 14.7304 69.5802
lradius 21.1199
lwrist -8.76189
lhand -25.0389 21.1752
lfingers 7.12502
lthumb 1.47403 51.1498
rfemur 0 0 0
rtibia 0
rfoot 0 0
rtoes 0
lfemur 6.71437 -10.4935 -19.5183
ltibia 10.3694
lfoot -13.8706 22.3546
ltoes -3.23587
728
root 0.00855993 18.8349 4.12577 -3.27259 -5.56223 0.36629
lowerback 5.79067 1.71868 -0.109198
upperback -0.282621 2.22432 -1.65146
thorax -3.47605 1.09331 -1.83517
lowerneck -7.67701 -5.69422 -6.60981
upperneck 1.75188 -7.35312 8.57979
head 2.59186 -3.49297 3.6736
rclavicle 4.22542e-014 -2.34566e-014
rhumerus 36.6959 -0.820179 -48.4304
rradius 123.354
rwrist 15.1815
rhand -47.1898 16.5262
rfingers 7.12502
rthumb -19.8898 -12.476
lclavicle 4.22542e-014 -2.34566e-014
lhumerus -34.9427 14.741 69.5413
lradius 21.094
lwrist -8.84122
lhand -25.1058 21.0192
lfingers 7.12502
lthumb 1.40934 50.9943
rfemur 0 0 0
rtibia 0
rfoot 0 0
rtoes 0
lfemur 6.75228 -10.5343 -19.5585
ltibia 10.3135
lfoot -13.8495 22.3994
ltoes -3.32407
729
root 0.00550378 18.8354 4.12279 -3.27264 -5.45687 0.405523
lowerback 5.82529 1.69645 -0.189238
upperback -0.318311 2.18841 -1.64651
thorax -3.53668 1.07642 -1.78429
lowerneck -7.62312 -5.71889 -6.61854
upperneck 1.7228 -7.38853 8.61849
head 2.57759 -3.51109 3.68784
rclavicle -6.34869e-015 1.19271e-015
rhumerus 36.7452 -0.979782 -48.4089
rradius 123.307
rwrist 15.3633
rhand -47.4174 16.5825
rfingers 7.12502
rthumb -20.1085 -12.3969
lclavicle -6.34869e-015 1.19271e-015
lhumerus -35.0355 14.6981 69.5388
lradius 21.1942
lwrist -8.83552
lhand -25.124 21.2706
lfingers 7.12502
lthumb 1.3918 51.2458
rfemur 0 0 0
rtibia 0
rfoot 0 0
rtoes 0
lfemur 6.7414 -10.4739 -19.5603
ltibia 10.2625
lfoot -13.7195 22.2691
ltoes -3.72127
730
root -0.00045754 18.8371 4.1121 -3.23609 -5.2353 0.404561
lowerback 5.89405 1.63405 -0.26084
upperback -0.366289 2.09909 -1.63484
thorax -3.63051 1.03272 -1.72796
lowerneck -7.5506 -5.75005 -6.66958
upperneck 1.67992 -7.43164 8.71077
head 2.56117 -3.53267 3.72914
rclavicle 1.65985e-014 1.59028e-015
rhumerus 36.8311 -1.10678 -48.4192
rradius 123.299
rwrist 15.4462
rhand -47.6462 16.878
rfingers 7.12502
rthumb -20.3284 -12.0781
lclavicle 1.65985e-014 1.59028e-015
lhumerus -35.1183 14.7891 69.4422
lradius 21.3517
lwrist -9.21177
lhand -25.0902 21.8286
lfingers 7.12502
lthumb 1.42446 51.8036
rfemur 0 0 0
rtibia 0
rfoot 0 0
rtoes 0
lfemur 6.62077 -10.3012 -19.4467
ltibia 10.2435
lfoot -13.4975 21.9217
ltoes -3.93407
731
root -0.00218664 18.838 4.11282 -3.22834 -5.21921 0.372439
lowerback 5.83723 1.63081 -0.21991
upperback -0.350439 2.09841 -1.63987
thorax -3.58051 1.03193 -1.75366
lowerneck -7.59414 -5.76628 -6.62456
upperneck 1.80206 -7.46854 9.03536
head 2.36392 -3.52506 3.44342
rclavicle -9.36773e-015 -2.26615e-014
rhumerus 36.9647 -1.24132 -48.4444
rradius 123.287
rwrist 15.4793
rhand -47.6519 17.0848
rfingers 7.12502
rthumb -20.3339 -11.8707
lclavicle -9.36773e-015 -2.26615e-014
lhumerus -35.0716 14.9403 69.315
lradius 21.3356
lwrist -9.66168
lhand -25.0558 22.2309
lfingers 7.12502
lthumb 1.45767 52.2057
rfemur 0 0 0
rtibia 0
rfoot 0 0
rtoes 0
lfemur 6.59644 -10.2767 -19.3951
ltibia 10.2594
lfoot -13.473 21.8885
ltoes -3.74646
732
root 0.000660995 18.8364 4.12451 -3.29311 -5.42094 0.339858
lowerback 5.74437 1.69586 -0.119849
upperback -0.312084 2.19357 -1.64458
thorax -3.48207 1.07816 -1.8185
lowerneck -7.60496 -5.7845 -6.67358
upperneck 1.75479 -7.48833 9.10569
head 2.358 -3.53359 3.4716
rclavicle 2.61153e-014 -1.98785e-015
rhumerus 37.0558 -1.36358 -48.4352
rradius 123.273
rwrist 15.4842
rhand -47.589 17.0947
rfingers 7.12502
rthumb -20.2734 -11.8673
lclavicle 2.61153e-014 -1.98785e-015
lhumerus -34.9593 14.877 69.3395
lradius 21.0792
lwrist -9.41389
lhand -25.026 21.8708
lfingers 7.12502
lthumb 1.48649 51.8454
rfemur 0 0 0
rtibia 0
rfoot 0 0
rtoes 0
lfemur 6.73625 -10.3981 -19.4532
ltibia 10.2893
lfoot -13.6655 22.1761
ltoes -3.5437
733
root 0.00176445 18.834 4.1308 -3.36999 -5.52217 0.331137
lowerback 5.7804 1.71906 -0.0977179
upperback -0.32197 2.22591 -1.63307
thorax -3.51121 1.0937 -1.82335
lowerneck -7.57701 -5.80628 -6.68869
upperneck 1.69613 -7.5136 9.10197
head 2.33839 -3.54775 3.47289
rclavicle 8.62228e-015 -1.19271e-014
rhumerus 37.1313 -1.41122 -48.4223
rradius 123.237
rwrist 15.5802
rhand -47.601 17.0542
rfingers 7.12502
rthumb -20.285 -11.9065
lclavicle 8.62228e-015 -1.19271e-014
lhumerus -34.9517 14.7991 69.3705
lradius 20.8932
lwrist -9.08563
lhand -25.0779 21.4225
lfingers 7.12502
lthumb 1.43637 51.3974
rfemur 0 0 0
rtibia 0
rfoot 0 0
rtoes 0
lfemur 6.85525 -10.4501 -19.4954
ltibia 10.333
lfoot -13.8909 22.2674
ltoes -3.35051
734
root 0.00115395 18.8334 4.13255 -3.39549 -5.53267 0.343397
lowerback 5.77975 1.73153 -0.106156
upperback -0.229471 2.24245 -1.65211
thorax -3.41427 1.10286 -1.83735
lowerneck -7.88225 -5.85374 -6.57899
upperneck 1.61898 -7.56462 9.06362
head 2.36304 -3.56646 3.43375
rclavicle 6.18717e-015 -3.29983e-014
rhumerus 37.3449 -1.6414 -48.4459
rradius 123.162
rwrist 15.7869
rhand -47.7015 17.0395
rfingers 7.12502
rthumb -20.3815 -11.9109
lclavicle 6.18717e-015 -3.29983e-014
lhumerus -34.6988 14.9326 69.3504
lradius 20.7728
lwrist -9.15628
lhand -25.1095 21.3728
lfingers 7.12502
lthumb 1.40578 51.3479
rfemur 0 0 0
rtibia 0
rfoot 0 0
rtoes 0
lfemur 6.88302 -10.4135 -19.5089
ltibia 10.3668
lfoot -13.9546 22.2214
ltoes -3.37456
735
root -0.000157156 18.8337 4.13231 -3.39869 -5.53933 0.322647
lowerback 5.7462 1.76204 -0.0614461
upperback -0.0264669 2.28744 -1.70259
thorax -3.18051 1.12639 -1.91187
lowerneck -8.52095 -5.90557 -6.41531
upperneck 1.57437 -7.61764 9.11764
head 2.45329 -3.57422 3.4045
rclavicle -2.78733e-014 3.97569e-014
rhumerus 37.6878 -2.06046 -48.492
rradius 123.073
rwrist 15.735
rhand -47.6872 17.3893
rfingers 7.12502
rthumb -20.3679 -11.5626
lclavicle -2.78733e-014 3.97569e-014
lhumerus -34.1472 15.076 69.369
lradius 20.6175
lwrist -9.24942
lhand -25.1167 21.2374
lfingers 7.12502
lthumb 1.39886 51.2126
rfemur 0 0 0
rtibia 0
rfoot 0 0
rtoes 0
lfemur 6.88151 -10.3725 -19.4775
ltibia 10.3606
lfoot -13.8202 22.234
ltoes -3.59801
736
root -0.00156412 18.8333 4.13254 -3.41591 -5.5278 0.336072
lowerback 5.73932 1.76983 -0.0738806
upperback 0.0614375 2.29724 -1.73263
thorax -3.08484 1.13221 -1.93422
lowerneck -8.81816 -5.92403 -6.35003
upperneck 1.5612 -7.6367 9.17722
head 2.49899 -3.5739 3.4033
rclavicle 1.64184e-014 7.95139e-015
rhumerus 37.9171 -2.28421 -48.491
rradius 123.032
rwrist 15.5498
rhand -47.6438 18.0868
rfingers 7.12502
rthumb -20.3261 -10.8695
lclavicle 1.64184e-014 7.95139e-015
lhumerus -33.9053 15.1261 69.3596
lradius 20.5528
lwrist -9.28405
lhand -25.1199 21.1013
lfingers 7.12502
lthumb 1.39575 51.0764
rfemur 0 0 0
rtibia 0
rfoot 0 0
rtoes 0
lfemur 6.89147 -10.4048 -19.4948
ltibia 10.3453
lfoot -13.7341 22.2831
ltoes -3.66203
